<mxfile host="app.diagrams.net" modified="2023-10-22T04:52:15.936Z" agent="Mozilla/5.0 (Macintosh; Intel Mac OS X 10_15_7) AppleWebKit/537.36 (KHTML, like Gecko) Chrome/118.0.0.0 Safari/537.36" version="22.0.6" etag="1TQzBcwajHjCEHP1C-40" type="github">
  <diagram name="Page-1" id="sMeuXygx0KGJLsREs9b4">
    <mxGraphModel>
      <root>
        <mxCell id="0" />
        <mxCell id="1" parent="0" />
      </root>
    </mxGraphModel>
  </diagram>
</mxfile>
